<svg width="1584" height="396" viewBox="0 0 1584 396" fill="none" xmlns="http://www.w3.org/2000/svg">
<rect width="1584" height="396" fill="#F5F5F5"/>
<g id="Awesome banner" clip-path="url(#clip0_0_1)">
<rect width="1584" height="396" fill="url(#paint0_linear_0_1)"/>
<ellipse id="Ellipse 2" cx="323" cy="64" rx="285" ry="288" fill="url(#paint1_linear_0_1)" fill-opacity="0.1"/>
<g id="copyright">
<path d="M75.95 334.52L72.30 334.52L72.30 311.16L77.20 311.16L83.70 330.04Q83.60 329.02 83.50 327.62Q83.41 326.23 83.33 324.79Q83.25 323.35 83.25 322.23L83.25 311.16L86.90 311.16L86.90 334.52L82 334.52L75.57 315.64Q75.63 316.57 75.73 317.88Q75.82 319.19 75.89 320.57Q75.95 321.94 75.95 323.10L75.95 334.52M98.80 334.84Q96.46 334.84 94.67 333.96Q92.88 333.08 91.89 331.53Q90.90 329.98 90.90 327.93Q90.90 325.78 92.13 324.18Q93.36 322.58 95.34 322.17L95.34 322.10Q93.65 321.75 92.61 320.38Q91.57 319 91.57 317.11Q91.57 315.26 92.48 313.85Q93.39 312.44 95.02 311.64Q96.66 310.84 98.80 310.84Q100.94 310.84 102.59 311.64Q104.24 312.44 105.15 313.85Q106.06 315.26 106.06 317.11Q106.06 319 105.01 320.38Q103.95 321.75 102.26 322.10L102.26 322.17Q104.24 322.58 105.47 324.18Q106.70 325.78 106.70 327.93Q106.70 329.98 105.71 331.53Q104.72 333.08 102.93 333.96Q101.14 334.84 98.80 334.84M98.80 320.73Q100.30 320.73 101.23 319.82Q102.16 318.90 102.16 317.46Q102.16 315.99 101.23 315.08Q100.30 314.17 98.80 314.17Q97.30 314.17 96.37 315.08Q95.44 315.99 95.44 317.46Q95.44 318.90 96.37 319.82Q97.30 320.73 98.80 320.73M98.80 331.45Q100.56 331.45 101.68 330.42Q102.80 329.40 102.80 327.74Q102.80 326.04 101.68 325Q100.56 323.96 98.80 323.96Q97.04 323.96 95.92 325Q94.80 326.04 94.80 327.74Q94.80 329.40 95.92 330.42Q97.04 331.45 98.80 331.45M114.35 334.52L110.70 334.52L110.70 311.16L115.60 311.16L122.10 330.04Q122 329.02 121.90 327.62Q121.81 326.23 121.73 324.79Q121.65 323.35 121.65 322.23L121.65 311.16L125.30 311.16L125.30 334.52L120.40 334.52L113.97 315.64Q114.03 316.57 114.13 317.88Q114.22 319.19 114.29 320.57Q114.35 321.94 114.35 323.10" fill="white" fill-opacity="0.9"/>
<path d="M161.48 325.24L151.24 325.24L151.24 322.68L161.48 322.68" fill="white" fill-opacity="0.9"/>
<path d="M195.02 334.84Q191.82 334.84 189.96 333.05Q188.11 331.26 188.11 328.12L188.11 317.56Q188.11 314.42 189.96 312.63Q191.82 310.84 195.02 310.84Q198.15 310.84 200.01 312.65Q201.87 314.46 201.87 317.56L198.99 317.56Q198.99 315.58 197.95 314.50Q196.91 313.43 195.02 313.43Q193.13 313.43 192.06 314.50Q190.99 315.58 190.99 317.56L190.99 328.12Q190.99 330.10 192.06 331.18Q193.13 332.25 195.02 332.25Q196.91 332.25 197.95 331.18Q198.99 330.10 198.99 328.12L201.87 328.12Q201.87 331.22 200.01 333.03Q198.15 334.84 195.02 334.84" fill="white" fill-opacity="0.9"/>
<path d="M213.96 334.84Q210.83 334.84 209 333.02Q207.18 331.19 207.18 327.80L207.18 317.88Q207.18 314.49 209 312.66Q210.83 310.84 213.96 310.84Q217.10 310.84 218.92 312.66Q220.75 314.49 220.75 317.85L220.75 327.80Q220.75 331.19 218.92 333.02Q217.10 334.84 213.96 334.84M213.96 332.25Q215.85 332.25 216.86 331.18Q217.87 330.10 217.87 328.12L217.87 317.56Q217.87 315.58 216.86 314.50Q215.85 313.43 213.96 313.43Q212.11 313.43 211.08 314.50Q210.06 315.58 210.06 317.56L210.06 328.12Q210.06 330.10 211.08 331.18Q212.11 332.25 213.96 332.25" fill="white" fill-opacity="0.9"/>
<path d="M228.65 334.52L225.87 334.52L225.87 311.16L230.12 311.16L233.10 321.27L236.20 311.16L240.46 311.16L240.46 334.52L237.67 334.52L237.67 323.48Q237.67 321.91 237.72 319.88Q237.77 317.85 237.87 315.77Q237.96 313.69 238.09 312.02L234.31 324.09L231.82 324.09L228.20 312.31Q228.46 314.68 228.55 317.50Q228.65 320.31 228.65 323.48" fill="white" fill-opacity="0.9"/>
<path d="M247.85 334.52L245.07 334.52L245.07 311.16L249.32 311.16L252.30 321.27L255.40 311.16L259.66 311.16L259.66 334.52L256.87 334.52L256.87 323.48Q256.87 321.91 256.92 319.88Q256.97 317.85 257.07 315.77Q257.16 313.69 257.29 312.02L253.51 324.09L251.02 324.09L247.40 312.31Q247.66 314.68 247.75 317.50Q247.85 320.31 247.85 323.48" fill="white" fill-opacity="0.9"/>
<path d="M271.56 334.84Q268.30 334.84 266.57 333.03Q264.84 331.22 264.84 328.12L264.84 311.16L267.72 311.16L267.72 328.12Q267.72 330.04 268.67 331.16Q269.61 332.28 271.56 332.28Q273.48 332.28 274.44 331.16Q275.40 330.04 275.40 328.12L275.40 311.16L278.28 311.16L278.28 328.12Q278.28 331.26 276.57 333.05Q274.86 334.84 271.56 334.84" fill="white" fill-opacity="0.9"/>
<path d="M286.83 334.52L284.04 334.52L284.04 311.16L287.88 311.16L295.02 331.16Q294.95 330.36 294.87 329.19Q294.79 328.02 294.75 326.73Q294.70 325.43 294.70 324.28L294.70 311.16L297.48 311.16L297.48 334.52L293.64 334.52L286.54 314.52Q286.60 315.29 286.67 316.46Q286.73 317.62 286.78 318.92Q286.83 320.22 286.83 321.40" fill="white" fill-opacity="0.9"/>
<path d="M316.20 334.52L303.72 334.52L303.72 331.90L308.49 331.90L308.49 313.78L303.72 313.78L303.72 311.16L316.20 311.16L316.20 313.78L311.43 313.78L311.43 331.90L316.20 331.90" fill="white" fill-opacity="0.9"/>
<path d="M330.60 334.52L327.72 334.52L327.72 313.78L321.32 313.78L321.32 311.16L337 311.16L337 313.78L330.60 313.78" fill="white" fill-opacity="0.9"/>
<path d="M349.80 334.52L346.92 334.52L346.92 325.78L339.88 311.16L342.95 311.16L347.50 320.76Q347.88 321.56 348.11 322.12Q348.33 322.68 348.39 322.94Q348.46 322.68 348.70 322.12Q348.94 321.56 349.32 320.76L353.87 311.16L356.84 311.16L349.80 325.78" fill="white" fill-opacity="0.9"/>
<path d="M382.83 334.52L380.04 334.52L380.04 311.16L383.88 311.16L391.02 331.16Q390.95 330.36 390.87 329.19Q390.79 328.02 390.75 326.73Q390.70 325.43 390.70 324.28L390.70 311.16L393.48 311.16L393.48 334.52L389.64 334.52L382.54 314.52Q382.60 315.29 382.67 316.46Q382.73 317.62 382.78 318.92Q382.83 320.22 382.83 321.40" fill="white" fill-opacity="0.9"/>
<path d="M405.96 334.84Q402.83 334.84 401 333.02Q399.18 331.19 399.18 327.80L399.18 317.88Q399.18 314.49 401 312.66Q402.83 310.84 405.96 310.84Q409.10 310.84 410.92 312.66Q412.75 314.49 412.75 317.85L412.75 327.80Q412.75 331.19 410.92 333.02Q409.10 334.84 405.96 334.84M405.96 332.25Q407.85 332.25 408.86 331.18Q409.87 330.10 409.87 328.12L409.87 317.56Q409.87 315.58 408.86 314.50Q407.85 313.43 405.96 313.43Q404.11 313.43 403.08 314.50Q402.06 315.58 402.06 317.56L402.06 328.12Q402.06 330.10 403.08 331.18Q404.11 332.25 405.96 332.25" fill="white" fill-opacity="0.9"/>
<path d="M424.55 334.52L418.51 334.52L418.51 311.16L424.55 311.16Q426.83 311.16 428.47 312.02Q430.12 312.89 431.03 314.46Q431.95 316.02 431.95 318.17L431.95 327.48Q431.95 329.62 431.03 331.21Q430.12 332.79 428.47 333.66Q426.83 334.52 424.55 334.52M421.39 313.72L421.39 331.96L424.55 331.96Q426.67 331.96 427.87 330.78Q429.07 329.59 429.07 327.48L429.07 318.17Q429.07 316.09 427.87 314.90Q426.67 313.72 424.55 313.72" fill="white" fill-opacity="0.9"/>
<path d="M451.40 334.52L437.96 334.52L437.96 311.16L451.40 311.16L451.40 313.78L440.81 313.78L440.81 321.02L450.28 321.02L450.28 323.58L440.81 323.58L440.81 331.90L451.40 331.90" fill="white" fill-opacity="0.9"/>
<path d="M463.69 334.84Q460.30 334.84 458.28 333.05Q456.27 331.26 456.27 328.12L459.15 328.12Q459.15 330.07 460.39 331.18Q461.64 332.28 463.69 332.28Q465.67 332.28 466.86 331.13Q468.04 329.98 468.04 328.12Q468.04 326.71 467.29 325.67Q466.54 324.63 465.13 324.25L461.58 323.26Q459.37 322.62 458.11 320.97Q456.84 319.32 456.84 317.08Q456.84 315.22 457.67 313.82Q458.51 312.41 460.01 311.62Q461.51 310.84 463.47 310.84Q465.45 310.84 466.97 311.62Q468.49 312.41 469.35 313.80Q470.22 315.19 470.22 317.02L467.34 317.02Q467.34 315.42 466.25 314.41Q465.16 313.40 463.47 313.40Q461.77 313.40 460.71 314.41Q459.66 315.42 459.66 317.02Q459.66 318.30 460.35 319.21Q461.03 320.12 462.28 320.47L465.93 321.50Q468.27 322.14 469.56 323.91Q470.86 325.69 470.86 328.12Q470.86 331.19 468.91 333.02Q466.95 334.84 463.69 334.84" fill="white" fill-opacity="0.9"/>
</g>
<path d="M73.82 197.64L71.73 197.64L71.73 180.12L74.92 180.12L77.15 187.70L79.48 180.12L82.67 180.12L82.67 197.64L80.58 197.64L80.58 189.36Q80.58 188.18 80.62 186.66Q80.66 185.14 80.73 183.58Q80.80 182.02 80.90 180.77L78.06 189.82L76.19 189.82L73.48 180.98Q73.67 182.76 73.74 184.87Q73.82 186.98 73.82 189.36" fill="white" fill-opacity="0.7"/>
<path d="M91.96 197.64L86.63 197.64L86.63 180.12L91.60 180.12Q94 180.12 95.36 181.32Q96.71 182.52 96.71 184.66Q96.71 186 95.86 187.08Q95.01 188.16 93.64 188.42L93.64 188.50Q94.67 188.62 95.45 189.22Q96.23 189.82 96.68 190.74Q97.12 191.66 97.12 192.77Q97.12 195.02 95.74 196.33Q94.36 197.64 91.96 197.64M88.74 182.06L88.74 187.58L91.58 187.58Q92.97 187.58 93.77 186.84Q94.58 186.10 94.58 184.82Q94.58 183.55 93.78 182.81Q92.99 182.06 91.60 182.06L88.74 182.06M88.74 189.46L88.74 195.70L91.72 195.70Q93.23 195.70 94.11 194.89Q94.98 194.09 94.98 192.70Q94.98 191.26 94.11 190.36Q93.23 189.46 91.72 189.46" fill="white" fill-opacity="0.7"/>
<path d="MNaN 197.88Q103.65 197.88 102.28 196.51Q100.91 195.14 100.91 192.60L100.91 185.16Q100.91 182.62 102.28 181.25Q103.65 179.88 NaN 179.88Q108.35 179.88 109.72 181.25Q111.09 182.62 111.09 185.14L111.09 192.60Q111.09 195.14 109.72 196.51Q108.35 197.88 NaN 197.88MNaN 195.94Q107.42 195.94 108.17 195.13Q108.93 194.33 108.93 192.84L108.93 184.92Q108.93 183.43 108.17 182.63Q107.42 181.82 NaN 181.82Q104.61 181.82 103.84 182.63Q103.07 183.43 103.07 184.92L103.07 192.84Q103.07 194.33 103.84 195.13Q104.61 195.94 NaN 195.94" fill="white" fill-opacity="0.7"/>
<path d="M120.50 197.88Q117.95 197.88 116.44 196.54Q114.93 195.19 114.93 192.84L117.09 192.84Q117.09 194.30 118.02 195.13Q118.96 195.96 120.50 195.96Q121.98 195.96 122.87 195.10Q123.76 194.23 123.76 192.84Q123.76 191.78 123.20 191Q122.63 190.22 121.58 189.94L118.91 189.19Q117.26 188.71 116.31 187.48Q115.36 186.24 115.36 184.56Q115.36 183.17 115.98 182.11Q116.61 181.06 117.74 180.47Q118.86 179.88 120.33 179.88Q121.82 179.88 122.96 180.47Q124.10 181.06 124.74 182.10Q125.39 183.14 125.39 184.51L123.23 184.51Q123.23 183.31 122.42 182.56Q121.60 181.80 120.33 181.80Q119.06 181.80 118.26 182.56Q117.47 183.31 117.47 184.51Q117.47 185.47 117.99 186.16Q118.50 186.84 119.44 187.10L122.18 187.87Q123.93 188.35 124.90 189.68Q125.87 191.02 125.87 192.84Q125.87 195.14 124.41 196.51Q122.94 197.88 120.50 197.88" fill="white" fill-opacity="0.7"/>
<path d="M140.08 197.64LNaN 197.64LNaN 180.12L140.08 180.12L140.08 182.09L132.14 182.09L132.14 187.51L139.24 187.51L139.24 189.43L132.14 189.43L132.14 195.67L140.08 195.67" fill="white" fill-opacity="0.7"/>
<path d="M163.79 197.88Q161.39 197.88 NaN 196.54Q158.61 195.19 158.61 192.84L158.61 184.92Q158.61 182.57 NaN 181.22Q161.39 179.88 163.79 179.88Q166.14 179.88 167.54 181.24Q168.93 182.59 168.93 184.92L166.77 184.92Q166.77 183.43 165.99 182.63Q165.21 181.82 163.79 181.82Q162.38 181.82 161.57 182.63Q160.77 183.43 160.77 184.92L160.77 192.84Q160.77 194.33 161.57 195.13Q162.38 195.94 163.79 195.94Q165.21 195.94 165.99 195.13Q166.77 194.33 166.77 192.84L168.93 192.84Q168.93 195.17 167.54 196.52Q166.14 197.88 163.79 197.88" fill="white" fill-opacity="0.7"/>
<path d="MNaN 197.64L179.92 197.64Q178.17 197.64 177.12 196.62Q176.08 195.60 176.08 193.92L176.08 182.09L171.52 182.09L171.52 180.12L178.24 180.12L178.24 193.92Q178.24 194.74 178.70 195.20Q179.15 195.67 179.92 195.67LNaN 195.67" fill="white" fill-opacity="0.7"/>
<path d="M191.25 197.88Q189.21 197.88 188.01 196.74Q186.81 195.60 186.81 193.75Q186.81 192.53 187.36 191.62Q187.91 190.70 188.90 190.19Q189.88 189.67 191.15 189.67L195.23 189.67L195.23 188.64Q195.23 186.07 192.42 186.07Q191.18 186.07 190.41 186.53Q189.64 186.98 189.59 187.80L187.43 187.80Q187.55 186.24 188.88 185.22Q190.22 184.20 192.42 184.20Q194.82 184.20 196.11 185.35Q197.39 186.50 197.39 188.57L197.39 197.64L195.26 197.64L195.26 195.24L195.21 195.24Q195.02 196.46 193.98 197.17Q192.95 197.88 191.25 197.88M191.78 196.06Q193.36 196.06 194.30 195.29Q195.23 194.52 195.23 193.20L195.23 191.35L191.39 191.35Q190.34 191.35 189.68 191.99Q189.02 192.62 189.02 193.68Q189.02 194.78 189.75 195.42Q190.48 196.06 191.78 196.06" fill="white" fill-opacity="0.7"/>
<path d="M207.33 197.83L206.27 197.83Q204.06 197.83 202.85 196.84Q201.64 195.84 201.64 194.02L203.80 194.02Q203.80 194.93 204.45 195.44Q205.10 195.96 206.27 195.96L207.33 195.96Q208.53 195.96 209.19 195.43Q209.85 194.90 209.85 193.94Q209.85 192.24 208.29 192.02L204.64 191.50Q203.30 191.30 202.55 190.38Q201.81 189.46 201.81 187.94Q201.81 186.22 203 185.23Q204.18 184.25 206.27 184.25L207.33 184.25Q209.25 184.25 210.46 185.20Q211.67 186.14 211.77 187.68L209.58 187.68Q209.54 186.98 208.92 186.53Q208.31 186.07 207.33 186.07L206.27 186.07Q205.17 186.07 204.54 186.58Q203.92 187.08 203.92 187.94Q203.92 189.34 205.19 189.53L208.60 190.01Q211.96 190.49 211.96 193.94Q211.96 195.79 210.75 196.81Q209.54 197.83 207.33 197.83" fill="white" fill-opacity="0.7"/>
<path d="M221.73 197.83L220.67 197.83Q218.46 197.83 217.25 196.84Q216.04 195.84 216.04 194.02L218.20 194.02Q218.20 194.93 218.85 195.44Q219.50 195.96 220.67 195.96L221.73 195.96Q222.93 195.96 223.59 195.43Q224.25 194.90 224.25 193.94Q224.25 192.24 222.69 192.02L219.04 191.50Q217.70 191.30 216.95 190.38Q216.21 189.46 216.21 187.94Q216.21 186.22 217.40 185.23Q218.58 184.25 220.67 184.25L221.73 184.25Q223.65 184.25 224.86 185.20Q226.07 186.14 226.17 187.68L223.98 187.68Q223.94 186.98 223.32 186.53Q222.71 186.07 221.73 186.07L220.67 186.07Q219.57 186.07 218.94 186.58Q218.32 187.08 218.32 187.94Q218.32 189.34 219.59 189.53LNaN 190.01Q226.36 190.49 226.36 193.94Q226.36 195.79 225.15 196.81Q223.94 197.83 221.73 197.83" fill="white" fill-opacity="0.7"/>
<path d="M246.16 197.64L243.76 197.64L248.80 188.76L244.02 180.12L246.52 180.12L249.23 185.30Q249.45 185.71 249.68 186.18Q249.90 186.65 250.05 186.91Q250.17 186.65 250.40 186.18Q250.62 185.71 250.84 185.30L253.60 180.12L255.98 180.12L251.20 188.62L256.24 197.64L253.77 197.64L250.77 192.07Q250.55 191.66 250.32 191.20Q250.10 190.73 249.98 190.44Q249.86 190.73 249.63 191.18Q249.40 191.64 249.18 192.05" fill="white" fill-opacity="0.7"/>
<path d="M277.65 197.88Q275.61 197.88 274.41 196.74Q273.21 195.60 273.21 193.75Q273.21 192.53 273.76 191.62Q274.31 190.70 275.30 190.19Q276.28 189.67 277.55 189.67L281.63 189.67L281.63 188.64Q281.63 186.07 278.82 186.07Q277.58 186.07 276.81 186.53Q276.04 186.98 275.99 187.80L273.83 187.80Q273.95 186.24 275.28 185.22Q276.62 184.20 278.82 184.20Q281.22 184.20 282.51 185.35Q283.79 186.50 283.79 188.57L283.79 197.64L281.66 197.64L281.66 195.24L281.61 195.24Q281.42 196.46 280.38 197.17Q279.35 197.88 277.65 197.88M278.18 196.06Q279.76 196.06 280.70 195.29Q281.63 194.52 281.63 193.20L281.63 191.35L277.79 191.35Q276.74 191.35 276.08 191.99Q275.42 192.62 275.42 193.68Q275.42 194.78 276.15 195.42Q276.88 196.06 278.18 196.06" fill="white" fill-opacity="0.7"/>
<path d="M290.37 197.64L288.21 197.64L288.21 184.44L290.37 184.44L290.37 186.96L290.39 186.96Q290.56 185.64 291.47 184.92Q292.38 184.20 293.90 184.20Q295.89 184.20 297.06 185.42Q298.24 186.65 298.24 188.76L298.24 197.64L296.08 197.64L296.08 189.14Q296.08 187.63 295.32 186.83Q294.57 186.02 293.27 186.02Q291.93 186.02 291.15 186.86Q290.37 187.70 290.37 189.24" fill="white" fill-opacity="0.7"/>
<path d="M306.83 197.88Q304.86 197.88 303.68 196.56Q302.49 195.24 302.49 192.98L302.49 189.12Q302.49 186.84 303.66 185.52Q304.84 184.20 306.83 184.20Q308.32 184.20 309.29 184.94Q310.26 185.69 310.46 186.96L310.48 186.96L310.43 183.96L310.43 180.12L312.59 180.12L312.59 197.64L310.43 197.64L310.43 195.12L310.41 195.12Q310.24 196.42 309.28 197.15Q308.32 197.88 306.83 197.88M307.55 196.01Q308.90 196.01 309.66 195.17Q310.43 194.33 310.43 192.84L310.43 189.24Q310.43 187.75 309.66 186.91Q308.90 186.07 307.55 186.07Q306.18 186.07 305.42 186.78Q304.65 187.49 304.65 189.12L304.65 192.96Q304.65 194.57 305.42 195.29Q306.18 196.01 307.55 196.01" fill="white" fill-opacity="0.7"/>
<path d="M332.56 197.64L330.16 197.64L335.20 188.76L330.42 180.12L332.92 180.12L335.63 185.30Q335.85 185.71 336.08 186.18Q336.30 186.65 336.45 186.91Q336.57 186.65 336.80 186.18Q337.02 185.71 337.24 185.30L340 180.12L342.38 180.12L337.60 188.62L342.64 197.64L340.17 197.64L337.17 192.07Q336.95 191.66 336.72 191.20Q336.50 190.73 336.38 190.44Q336.26 190.73 336.03 191.18Q335.80 191.64 335.58 192.05" fill="white" fill-opacity="0.7"/>
<path d="M355.48 197.64L346.12 197.64L346.12 195.67L349.70 195.67L349.70 182.09L346.12 182.09L346.12 180.12L355.48 180.12L355.48 182.09L351.90 182.09L351.90 195.67L355.48 195.67" fill="white" fill-opacity="0.7"/>
<path d="M369.88 197.64L360.52 197.64L360.52 195.67L364.10 195.67L364.10 182.09L360.52 182.09L360.52 180.12L369.88 180.12L369.88 182.09L366.30 182.09L366.30 195.67L369.88 195.67" fill="white" fill-opacity="0.7"/>
<path d="M390.26 197.64L388.24 197.64L388.24 184.44L390.11 184.44L390.11 186.19L390.16 186.19Q390.28 185.30 390.87 184.75Q391.46 184.20 392.37 184.20Q393.23 184.20 393.83 184.70Q394.43 185.21 394.70 186.07L394.72 186.07Q394.89 185.21 395.48 184.70Q396.06 184.20 396.98 184.20Q398.25 184.20 399 185.15Q399.76 186.10 399.76 187.61L399.76 197.64L397.74 197.64L397.74 187.58Q397.74 186.79 397.36 186.32Q396.98 185.86 396.30 185.86Q395.66 185.86 395.27 186.31Q394.89 186.77 394.89 187.56L394.89 197.64L393.11 197.64L393.11 187.58Q393.11 186.79 392.73 186.32Q392.34 185.86 391.70 185.86Q391.02 185.86 390.64 186.31Q390.26 186.77 390.26 187.56" fill="white" fill-opacity="0.7"/>
<path d="M407.25 197.88Q405.21 197.88 404.01 196.74Q402.81 195.60 402.81 193.75Q402.81 192.53 403.36 191.62Q403.91 190.70 404.90 190.19Q405.88 189.67 407.15 189.67L411.23 189.67L411.23 188.64Q411.23 186.07 408.42 186.07Q407.18 186.07 406.41 186.53Q405.64 186.98 405.59 187.80L403.43 187.80Q403.55 186.24 404.88 185.22Q406.22 184.20 408.42 184.20Q410.82 184.20 412.11 185.35Q413.39 186.50 413.39 188.57L413.39 197.64L411.26 197.64L411.26 195.24L411.21 195.24Q411.02 196.46 409.98 197.17Q408.95 197.88 407.25 197.88M407.78 196.06Q409.36 196.06 410.30 195.29Q411.23 194.52 411.23 193.20L411.23 191.35L407.39 191.35Q406.34 191.35 405.68 191.99Q405.02 192.62 405.02 193.68Q405.02 194.78 405.75 195.42Q406.48 196.06 407.78 196.06" fill="white" fill-opacity="0.7"/>
<path d="M420.45 197.64L418.29 197.64L418.29 184.44L420.45 184.44L420.45 186.96L420.50 186.96Q420.66 185.69 421.58 184.94Q422.49 184.20 424.02 184.20Q426.09 184.20 427.20 185.44Q428.32 186.67 428.32 188.95L428.32 190.08L426.16 190.08L426.16 188.95Q426.16 186.07 423.35 186.07Q421.94 186.07 421.19 186.89Q420.45 187.70 420.45 189.24" fill="white" fill-opacity="0.7"/>
<path d="M434.49 197.64L432.33 197.64L432.33 180.12L434.49 180.12L434.49 189.89L437.01 189.89L440.70 184.44L443.18 184.44L438.93 190.73L443.42 197.64L440.90 197.64L437.06 191.76L434.49 191.76" fill="white" fill-opacity="0.7"/>
<path d="M452.13 197.83L451.07 197.83Q448.86 197.83 447.65 196.84Q446.44 195.84 446.44 194.02L448.60 194.02Q448.60 194.93 449.25 195.44Q449.90 195.96 451.07 195.96L452.13 195.96Q453.33 195.96 453.99 195.43Q454.65 194.90 454.65 193.94Q454.65 192.24 453.09 192.02L449.44 191.50Q448.10 191.30 447.35 190.38Q446.61 189.46 446.61 187.94Q446.61 186.22 447.80 185.23Q448.98 184.25 451.07 184.25L452.13 184.25Q454.05 184.25 455.26 185.20Q456.47 186.14 456.57 187.68L454.38 187.68Q454.34 186.98 453.72 186.53Q453.11 186.07 452.13 186.07L451.07 186.07Q449.97 186.07 449.34 186.58Q448.72 187.08 448.72 187.94Q448.72 189.34 449.99 189.53L453.40 190.01Q456.76 190.49 456.76 193.94Q456.76 195.79 455.55 196.81Q454.34 197.83 452.13 197.83" fill="white" fill-opacity="0.7"/>
<path d="M463.17 197.64L461.01 197.64L461.01 180.12L463.17 180.12L463.17 186.96L463.19 186.96Q463.36 185.64 464.27 184.92Q465.18 184.20 466.70 184.20Q468.69 184.20 469.86 185.42Q471.04 186.65 471.04 188.76L471.04 197.64L468.88 197.64L468.88 189.12Q468.88 187.63 468.12 186.83Q467.37 186.02 466.07 186.02Q464.73 186.02 463.95 186.86Q463.17 187.70 463.17 189.24" fill="white" fill-opacity="0.7"/>
<path d="M480.40 197.88Q478.07 197.88 476.64 196.48Q475.22 195.07 475.22 192.60L475.22 189.48Q475.22 187.01 476.64 185.60Q478.07 184.20 480.40 184.20Q481.96 184.20 483.12 184.82Q484.29 185.45 484.94 186.58Q485.58 187.70 485.58 189.24L485.58 191.59L477.33 191.59L477.33 192.84Q477.33 194.30 478.17 195.16Q479.01 196.01 480.40 196.01Q481.60 196.01 482.38 195.54Q483.16 195.07 483.33 194.28L485.49 194.28Q485.27 195.94 483.88 196.91Q482.49 197.88 480.40 197.88M477.33 189.24L477.33 189.91L483.47 189.91L483.47 189.24Q483.47 187.68 482.67 186.83Q481.86 185.98 480.40 185.98Q478.94 185.98 478.13 186.83Q477.33 187.68 477.33 189.24" fill="white" fill-opacity="0.7"/>
<path d="M494.80 197.88Q492.47 197.88 491.04 196.48Q489.62 195.07 489.62 192.60L489.62 189.48Q489.62 187.01 491.04 185.60Q492.47 184.20 494.80 184.20Q496.36 184.20 497.52 184.82Q498.69 185.45 499.34 186.58Q499.98 187.70 499.98 189.24L499.98 191.59L491.73 191.59L491.73 192.84Q491.73 194.30 492.57 195.16Q493.41 196.01 494.80 196.01Q496 196.01 496.78 195.54Q497.56 195.07 497.73 194.28L499.89 194.28Q499.67 195.94 498.28 196.91Q496.89 197.88 494.80 197.88M491.73 189.24L491.73 189.91L497.87 189.91L497.87 189.24Q497.87 187.68 497.07 186.83Q496.26 185.98 494.80 185.98Q493.34 185.98 492.53 186.83Q491.73 187.68 491.73 189.24" fill="white" fill-opacity="0.7"/>
<path d="M514.36 197.64L510.52 197.64Q508.89 197.64 507.90 196.69Q506.92 195.74 506.92 194.16L506.92 186.41L503.13 186.41L503.13 184.44L506.92 184.44L506.92 180.72L509.08 180.72L509.08 184.44L514.48 184.44L514.48 186.41L509.08 186.41L509.08 194.16Q509.08 194.83 509.48 195.25Q509.87 195.67 510.52 195.67L514.36 195.67" fill="white" fill-opacity="0.7"/>
<path d="M524.13 197.83L523.07 197.83Q520.86 197.83 519.65 196.84Q518.44 195.84 518.44 194.02L520.60 194.02Q520.60 194.93 521.25 195.44Q521.90 195.96 523.07 195.96L524.13 195.96Q525.33 195.96 525.99 195.43Q526.65 194.90 526.65 193.94Q526.65 192.24 525.09 192.02L521.44 191.50Q520.10 191.30 519.35 190.38Q518.61 189.46 518.61 187.94Q518.61 186.22 519.80 185.23Q520.98 184.25 523.07 184.25L524.13 184.25Q526.05 184.25 527.26 185.20Q528.47 186.14 528.57 187.68L526.38 187.68Q526.34 186.98 525.72 186.53Q525.11 186.07 524.13 186.07L523.07 186.07Q521.97 186.07 521.34 186.58Q520.72 187.08 520.72 187.94Q520.72 189.34 521.99 189.53L525.40 190.01Q528.76 190.49 528.76 193.94Q528.76 195.79 527.55 196.81Q526.34 197.83 524.13 197.83" fill="white" fill-opacity="0.7"/>
<path d="M556.84 198.43L556.84 200.52Q553.41 199.75 551.52 197.30Q549.64 194.86 549.64 191.16L549.64 186.84Q549.64 183.14 551.52 180.70Q553.41 178.25 556.84 177.48L556.84 179.57Q555.30 179.93 554.16 180.94Q553.02 181.94 552.41 183.44Q551.80 184.94 551.80 186.84L551.80 191.16Q551.80 193.03 552.41 194.54Q553.02 196.06 554.16 197.06Q555.30 198.07 556.84 198.43" fill="white" fill-opacity="0.7"/>
<path d="M572.25 197.64L561.66 197.64L561.66 195.65L567.50 189.41Q568.77 188.06 569.30 187.01Q569.82 185.95 569.82 184.94Q569.82 183.50 569 182.65Q568.17 181.80 566.75 181.80Q565.29 181.80 564.44 182.68Q563.58 183.55 563.58 185.04L561.42 185.04Q561.50 182.66 562.94 181.27Q564.38 179.88 566.75 179.88Q569.18 179.88 570.60 181.25Q572.03 182.62 572.03 184.97Q572.03 186.22 571.35 187.61Q570.66 189 569.01 190.73L564.28 195.67L572.25 195.67" fill="white" fill-opacity="0.7"/>
<path d="M581.20 197.88Q578.78 197.88 577.35 196.48Q575.92 195.07 575.92 192.72L575.92 185.04Q575.92 182.69 577.35 181.28Q578.78 179.88 581.20 179.88Q583.62 179.88 585.05 181.28Q586.48 182.69 586.48 185.04L586.48 192.72Q586.48 194.28 585.83 195.44Q585.18 196.61 584 197.24Q582.81 197.88 581.20 197.88M581.20 196.03Q582.64 196.03 583.52 195.11Q584.39 194.18 584.39 192.72L584.39 185.04Q584.39 183.58 583.52 182.65Q582.64 181.73 581.20 181.73Q579.76 181.73 578.88 182.65Q578.01 183.58 578.01 185.04L578.01 192.72Q578.01 194.18 578.88 195.11Q579.76 196.03 581.20 196.03M581.20 190.20Q580.55 190.20 580.16 189.84Q579.76 189.48 579.76 188.81Q579.76 188.16 580.16 187.81Q580.55 187.46 581.20 187.46Q581.85 187.46 582.24 187.81Q582.64 188.16 582.64 188.81Q582.64 189.48 582.24 189.84Q581.85 190.20 581.20 190.20" fill="white" fill-opacity="0.7"/>
<path d="M601.36 197.64L590.56 197.64L590.56 195.67L595.31 195.67L595.31 181.99L590.56 185.54L590.56 183.07L594.52 180.12L597.47 180.12L597.47 195.67L601.36 195.67" fill="white" fill-opacity="0.7"/>
<path d="M609.86 197.88Q607.43 197.88 606.02 196.52Q604.60 195.17 604.60 192.84L606.76 192.84Q606.76 194.28 607.60 195.12Q608.44 195.96 609.88 195.96Q611.32 195.96 612.16 195.12Q613 194.28 613 192.84L613 191.76Q613 190.32 612.18 189.48Q611.37 188.64 609.98 188.64L605.20 188.64L605.20 180.12L614.54 180.12L614.54 182.09L607.22 182.09L607.26 186.67L610.10 186.67Q612.52 186.67 613.84 188Q615.16 189.34 615.16 191.76L615.16 192.84Q615.16 195.17 613.73 196.52Q612.30 197.88 609.86 197.88" fill="white" fill-opacity="0.7"/>
<path d="M628.24 190.68L620.56 190.68L620.56 188.76L628.24 188.76" fill="white" fill-opacity="0.7"/>
<path d="M644.25 197.64L633.66 197.64L633.66 195.65L639.50 189.41Q640.77 188.06 641.30 187.01Q641.82 185.95 641.82 184.94Q641.82 183.50 641 182.65Q640.17 181.80 638.75 181.80Q637.29 181.80 636.44 182.68Q635.58 183.55 635.58 185.04L633.42 185.04Q633.50 182.66 634.94 181.27Q636.38 179.88 638.75 179.88Q641.18 179.88 642.60 181.25Q644.03 182.62 644.03 184.97Q644.03 186.22 643.35 187.61Q642.66 189 641.01 190.73L636.28 195.67L644.25 195.67" fill="white" fill-opacity="0.7"/>
<path d="M653.20 197.88Q650.78 197.88 649.35 196.48Q647.92 195.07 647.92 192.72L647.92 185.04Q647.92 182.69 649.35 181.28Q650.78 179.88 653.20 179.88Q655.62 179.88 657.05 181.28Q658.48 182.69 658.48 185.04L658.48 192.72Q658.48 194.28 657.83 195.44Q657.18 196.61 656 197.24Q654.81 197.88 653.20 197.88M653.20 196.03Q654.64 196.03 655.52 195.11Q656.39 194.18 656.39 192.72L656.39 185.04Q656.39 183.58 655.52 182.65Q654.64 181.73 653.20 181.73Q651.76 181.73 650.88 182.65Q650.01 183.58 650.01 185.04L650.01 192.72Q650.01 194.18 650.88 195.11Q651.76 196.03 653.20 196.03M653.20 190.20Q652.55 190.20 652.16 189.84Q651.76 189.48 651.76 188.81Q651.76 188.16 652.16 187.81Q652.55 187.46 653.20 187.46Q653.85 187.46 654.24 187.81Q654.64 188.16 654.64 188.81Q654.64 189.48 654.24 189.84Q653.85 190.20 653.20 190.20" fill="white" fill-opacity="0.7"/>
<path d="M673.36 197.64L662.56 197.64L662.56 195.67L667.31 195.67L667.31 181.99L662.56 185.54L662.56 183.07L666.52 180.12L669.47 180.12L669.47 195.67L673.36 195.67" fill="white" fill-opacity="0.7"/>
<path d="M682 197.64L679.48 197.64L683.80 190.13L683.73 190.08Q683.49 190.46 682.84 190.69Q682.19 190.92 681.42 190.92Q679.91 190.92 678.77 190.24Q677.63 189.55 676.98 188.35Q676.34 187.15 676.34 185.57Q676.34 183.86 677.06 182.59Q677.78 181.32 679.05 180.60Q680.32 179.88 681.98 179.88Q683.68 179.88 684.95 180.59Q686.22 181.30 686.94 182.56Q687.66 183.82 687.66 185.47Q687.66 186.62 687.23 187.84Q686.80 189.05 686.06 190.37L682 197.64M682 189.24Q683.56 189.24 684.53 188.21Q685.50 187.18 685.50 185.52Q685.50 183.86 684.53 182.83Q683.56 181.80 682 181.80Q680.44 181.80 679.47 182.83Q678.50 183.86 678.50 185.52Q678.50 187.18 679.47 188.21Q680.44 189.24 682 189.24" fill="white" fill-opacity="0.7"/>
<path d="M691.96 200.52L691.96 198.43Q693.52 198.07 694.65 197.06Q695.78 196.06 696.39 194.54Q697 193.03 697 191.16L697 186.84Q697 184.94 696.39 183.44Q695.78 181.94 694.65 180.94Q693.52 179.93 691.96 179.57L691.96 177.48Q695.39 178.25 697.28 180.70Q699.16 183.14 699.16 186.84L699.16 191.16Q699.16 194.86 697.28 197.30Q695.39 199.75 691.96 200.52" fill="white" fill-opacity="0.7"/>
<path d="M724.05 197.88Q722.01 197.88 720.81 196.74Q719.61 195.60 719.61 193.75Q719.61 192.53 720.16 191.62Q720.71 190.70 721.70 190.19Q722.68 189.67 723.95 189.67L728.03 189.67L728.03 188.64Q728.03 186.07 725.22 186.07Q723.98 186.07 723.21 186.53Q722.44 186.98 722.39 187.80L720.23 187.80Q720.35 186.24 721.68 185.22Q723.02 184.20 725.22 184.20Q727.62 184.20 728.91 185.35Q730.19 186.50 730.19 188.57L730.19 197.64L728.06 197.64L728.06 195.24L728.01 195.24Q727.82 196.46 726.78 197.17Q725.75 197.88 724.05 197.88M724.58 196.06Q726.16 196.06 727.10 195.29Q728.03 194.52 728.03 193.20L728.03 191.35L724.19 191.35Q723.14 191.35 722.48 191.99Q721.82 192.62 721.82 193.68Q721.82 194.78 722.55 195.42Q723.28 196.06 724.58 196.06" fill="white" fill-opacity="0.7"/>
<path d="M741.02 197.64L738.18 197.64L733.70 184.44L736.02 184.44L738.90 193.32Q739.17 194.11 739.36 194.84Q739.55 195.58 739.65 195.98Q739.77 195.58 739.94 194.84Q740.10 194.11 740.34 193.32L743.22 184.44L745.50 184.44" fill="white" fill-opacity="0.7"/>
<path d="M752.85 197.88Q750.81 197.88 749.61 196.74Q748.41 195.60 748.41 193.75Q748.41 192.53 748.96 191.62Q749.51 190.70 750.50 190.19Q751.48 189.67 752.75 189.67L756.83 189.67L756.83 188.64Q756.83 186.07 754.02 186.07Q752.78 186.07 752.01 186.53Q751.24 186.98 751.19 187.80L749.03 187.80Q749.15 186.24 750.48 185.22Q751.82 184.20 754.02 184.20Q756.42 184.20 757.71 185.35Q758.99 186.50 758.99 188.57L758.99 197.64L756.86 197.64L756.86 195.24L756.81 195.24Q756.62 196.46 755.58 197.17Q754.55 197.88 752.85 197.88M753.38 196.06Q754.96 196.06 755.90 195.29Q756.83 194.52 756.83 193.20L756.83 191.35L752.99 191.35Q751.94 191.35 751.28 191.99Q750.62 192.62 750.62 193.68Q750.62 194.78 751.35 195.42Q752.08 196.06 753.38 196.06" fill="white" fill-opacity="0.7"/>
<path d="M774.52 197.64L763.24 197.64L763.24 195.67L767.92 195.67L767.92 186.41L763.72 186.41L763.72 184.44L770.08 184.44L770.08 195.67L774.52 195.67L774.52 197.64M768.76 182.06Q767.97 182.06 767.51 181.66Q767.06 181.25 767.06 180.55Q767.06 179.83 767.51 179.41Q767.97 178.99 768.76 178.99Q769.55 178.99 770.01 179.41Q770.46 179.83 770.46 180.55Q770.46 181.25 770.01 181.66Q769.55 182.06 768.76 182.06" fill="white" fill-opacity="0.7"/>
<path d="M788.80 197.64L784.72 197.64Q782.97 197.64 781.92 196.62Q780.88 195.60 780.88 193.92L780.88 182.09L776.32 182.09L776.32 180.12L783.04 180.12L783.04 193.92Q783.04 194.74 783.50 195.20Q783.95 195.67 784.72 195.67L788.80 195.67" fill="white" fill-opacity="0.7"/>
<path d="M796.05 197.88Q794.01 197.88 792.81 196.74Q791.61 195.60 791.61 193.75Q791.61 192.53 792.16 191.62Q792.71 190.70 793.70 190.19Q794.68 189.67 795.95 189.67L800.03 189.67L800.03 188.64Q800.03 186.07 797.22 186.07Q795.98 186.07 795.21 186.53Q794.44 186.98 794.39 187.80L792.23 187.80Q792.35 186.24 793.68 185.22Q795.02 184.20 797.22 184.20Q799.62 184.20 800.91 185.35Q802.19 186.50 802.19 188.57L802.19 197.64L800.06 197.64L800.06 195.24L800.01 195.24Q799.82 196.46 798.78 197.17Q797.75 197.88 796.05 197.88M796.58 196.06Q798.16 196.06 799.10 195.29Q800.03 194.52 800.03 193.20L800.03 191.35L796.19 191.35Q795.14 191.35 794.48 191.99Q793.82 192.62 793.82 193.68Q793.82 194.78 794.55 195.42Q795.28 196.06 796.58 196.06" fill="white" fill-opacity="0.7"/>
<path d="M812.37 197.88Q810.88 197.88 809.92 197.15Q808.96 196.42 808.79 195.12L808.77 195.12L808.77 197.64L806.61 197.64L806.61 180.12L808.77 180.12L808.77 183.96L808.72 186.96L808.74 186.96Q808.94 185.69 809.91 184.94Q810.88 184.20 812.37 184.20Q814.36 184.20 815.54 185.52Q816.71 186.84 816.71 189.12L816.71 192.98Q816.71 195.24 815.54 196.56Q814.36 197.88 812.37 197.88M811.65 196.01Q813.02 196.01 813.78 195.29Q814.55 194.57 814.55 192.96L814.55 189.12Q814.55 187.49 813.78 186.78Q813.02 186.07 811.65 186.07Q810.33 186.07 809.55 186.91Q808.77 187.75 808.77 189.24L808.77 192.84Q808.77 194.33 809.55 195.17Q810.33 196.01 811.65 196.01" fill="white" fill-opacity="0.7"/>
<path d="M832 197.64L827.92 197.64Q826.17 197.64 825.12 196.62Q824.08 195.60 824.08 193.92L824.08 182.09L819.52 182.09L819.52 180.12L826.24 180.12L826.24 193.92Q826.24 194.74 826.70 195.20Q827.15 195.67 827.92 195.67L832 195.67" fill="white" fill-opacity="0.7"/>
<path d="M840.40 197.88Q838.07 197.88 836.64 196.48Q835.22 195.07 835.22 192.60L835.22 189.48Q835.22 187.01 836.64 185.60Q838.07 184.20 840.40 184.20Q841.96 184.20 843.12 184.82Q844.29 185.45 844.94 186.58Q845.58 187.70 845.58 189.24L845.58 191.59L837.33 191.59L837.33 192.84Q837.33 194.30 838.17 195.16Q839.01 196.01 840.40 196.01Q841.60 196.01 842.38 195.54Q843.16 195.07 843.33 194.28L845.49 194.28Q845.27 195.94 843.88 196.91Q842.49 197.88 840.40 197.88M837.33 189.24L837.33 189.91L843.47 189.91L843.47 189.24Q843.47 187.68 842.67 186.83Q841.86 185.98 840.40 185.98Q838.94 185.98 838.13 186.83Q837.33 187.68 837.33 189.24" fill="white" fill-opacity="0.7"/>
<path d="M869.20 197.83Q866.82 197.83 865.42 196.44Q864.02 195.05 864.02 192.55L864.02 189.53Q864.02 187.01 865.41 185.63Q866.80 184.25 869.20 184.25Q871.60 184.25 872.99 185.63Q874.38 187.01 874.38 189.53L874.38 192.55Q874.38 195.05 872.98 196.44Q871.58 197.83 869.20 197.83M869.20 195.91Q870.62 195.91 871.42 195.12Q872.22 194.33 872.22 192.79L872.22 189.29Q872.22 187.75 871.42 186.96Q870.62 186.17 869.20 186.17Q867.81 186.17 866.99 186.96Q866.18 187.75 866.18 189.29L866.18 192.79Q866.18 194.33 866.99 195.12Q867.81 195.91 869.20 195.91" fill="white" fill-opacity="0.7"/>
<path d="M880.77 197.64L878.61 197.64L878.61 184.44L880.77 184.44L880.77 186.96L880.79 186.96Q880.96 185.64 881.87 184.92Q882.78 184.20 884.30 184.20Q886.29 184.20 887.46 185.42Q888.64 186.65 888.64 188.76L888.64 197.64L886.48 197.64L886.48 189.14Q886.48 187.63 885.72 186.83Q884.97 186.02 883.67 186.02Q882.33 186.02 881.55 186.86Q880.77 187.70 880.77 189.24" fill="white" fill-opacity="0.7"/>
<path d="M911.94 197.64L907.41 197.64L907.41 180.12L911.94 180.12Q913.65 180.12 914.88 180.77Q916.12 181.42 916.80 182.59Q917.49 183.77 917.49 185.38L917.49 192.36Q917.49 193.97 916.80 195.16Q916.12 196.34 914.88 196.99Q913.65 197.64 911.94 197.64M909.57 182.04L909.57 195.72L911.94 195.72Q913.53 195.72 914.43 194.83Q915.33 193.94 915.33 192.36L915.33 185.38Q915.33 183.82 914.43 182.93Q913.53 182.04 911.94 182.04" fill="white" fill-opacity="0.7"/>
<path d="M932.92 197.64L921.64 197.64L921.64 195.67L926.32 195.67L926.32 186.41L922.12 186.41L922.12 184.44L928.48 184.44L928.48 195.67L932.92 195.67L932.92 197.64M927.16 182.06Q926.37 182.06 925.91 181.66Q925.46 181.25 925.46 180.55Q925.46 179.83 925.91 179.41Q926.37 178.99 927.16 178.99Q927.95 178.99 928.41 179.41Q928.86 179.83 928.86 180.55Q928.86 181.25 928.41 181.66Q927.95 182.06 927.16 182.06" fill="white" fill-opacity="0.7"/>
<path d="M941.56 201.96L937.86 201.96L937.86 199.99L941.58 199.99Q942.71 199.99 943.36 199.36Q944.01 198.72 944.01 197.64L944.01 196.44L944.06 194.28L943.98 194.28Q943.79 195.46 942.86 196.09Q941.92 196.73 940.50 196.73Q938.46 196.73 937.29 195.43Q936.11 194.14 936.11 191.88L936.11 189.10Q936.11 186.84 937.29 185.52Q938.46 184.20 940.50 184.20Q941.92 184.20 942.86 184.87Q943.79 185.54 943.98 186.72L944.03 186.72L944.03 184.44L946.17 184.44L946.17 197.64Q946.17 199.63 944.93 200.80Q943.70 201.96 941.56 201.96M941.15 194.93Q942.50 194.93 943.26 194.09Q944.03 193.25 944.03 191.76L944.03 189.24Q944.03 187.75 943.26 186.91Q942.50 186.07 941.15 186.07Q939.78 186.07 939.03 186.86Q938.27 187.66 938.27 189L938.27 192Q938.27 193.34 939.03 194.14Q939.78 194.93 941.15 194.93" fill="white" fill-opacity="0.7"/>
<path d="M961.72 197.64L950.44 197.64L950.44 195.67L955.12 195.67L955.12 186.41L950.92 186.41L950.92 184.44L957.28 184.44L957.28 195.67L961.72 195.67L961.72 197.64M955.96 182.06Q955.17 182.06 954.71 181.66Q954.26 181.25 954.26 180.55Q954.26 179.83 954.71 179.41Q955.17 178.99 955.96 178.99Q956.75 178.99 957.21 179.41Q957.66 179.83 957.66 180.55Q957.66 181.25 957.21 181.66Q956.75 182.06 955.96 182.06" fill="white" fill-opacity="0.7"/>
<path d="M976 197.64L965.92 197.64L965.92 180.12L968.08 180.12L968.08 195.67L976 195.67" fill="white" fill-opacity="0.7"/>
<path d="M984.40 197.83Q982.02 197.83 980.62 196.44Q979.22 195.05 979.22 192.55L979.22 189.53Q979.22 187.01 980.61 185.63Q982 184.25 984.40 184.25Q986.80 184.25 988.19 185.63Q989.58 187.01 989.58 189.53L989.58 192.55Q989.58 195.05 988.18 196.44Q986.78 197.83 984.40 197.83M984.40 195.91Q985.82 195.91 986.62 195.12Q987.42 194.33 987.42 192.79L987.42 189.29Q987.42 187.75 986.62 186.96Q985.82 186.17 984.40 186.17Q983.01 186.17 982.19 186.96Q981.38 187.75 981.38 189.29L981.38 192.79Q981.38 194.33 982.19 195.12Q983.01 195.91 984.40 195.91" fill="white" fill-opacity="0.7"/>
<path d="M998.99 197.88Q996.59 197.88 995.15 196.54Q993.71 195.19 993.71 192.84L993.71 189.24Q993.71 186.89 995.15 185.54Q996.59 184.20 998.99 184.20Q1001.27 184.20 1002.68 185.42Q1004.08 186.65 1004.15 188.76L1001.99 188.76Q1001.92 187.49 1001.13 186.80Q1000.34 186.12 998.99 186.12Q997.58 186.12 996.72 186.92Q995.87 187.73 995.87 189.22L995.87 192.84Q995.87 194.33 996.72 195.14Q997.58 195.96 998.99 195.96Q1000.34 195.96 1001.13 195.26Q1001.92 194.57 1001.99 193.32L1004.15 193.32Q1004.08 195.43 1002.68 196.66Q1001.27 197.88 998.99 197.88" fill="white" fill-opacity="0.7"/>
<path d="M1010.49 197.64L1008.33 197.64L1008.33 180.12L1010.49 180.12L1010.49 189.89L1013.01 189.89L1016.70 184.44L1019.18 184.44L1014.93 190.73L1019.42 197.64L1016.90 197.64L1013.06 191.76L1010.49 191.76" fill="white" fill-opacity="0.7"/>
<path d="M1027.60 197.88Q1025.27 197.88 1023.84 196.48Q1022.42 195.07 1022.42 192.60L1022.42 189.48Q1022.42 187.01 1023.84 185.60Q1025.27 184.20 1027.60 184.20Q1029.16 184.20 1030.32 184.82Q1031.49 185.45 1032.14 186.58Q1032.78 187.70 1032.78 189.24L1032.78 191.59L1024.53 191.59L1024.53 192.84Q1024.53 194.30 1025.37 195.16Q1026.21 196.01 1027.60 196.01Q1028.80 196.01 1029.58 195.54Q1030.36 195.07 1030.53 194.28L1032.69 194.28Q1032.47 195.94 1031.08 196.91Q1029.69 197.88 1027.60 197.88M1024.53 189.24L1024.53 189.91L1030.67 189.91L1030.67 189.24Q1030.67 187.68 1029.87 186.83Q1029.06 185.98 1027.60 185.98Q1026.14 185.98 1025.33 186.83Q1024.53 187.68 1024.53 189.24" fill="white" fill-opacity="0.7"/>
<path d="M1039.65 197.64L1037.49 197.64L1037.49 184.44L1039.65 184.44L1039.65 186.96L1039.70 186.96Q1039.86 185.69 1040.78 184.94Q1041.69 184.20 1043.22 184.20Q1045.29 184.20 1046.40 185.44Q1047.52 186.67 1047.52 188.95L1047.52 190.08L1045.36 190.08L1045.36 188.95Q1045.36 186.07 1042.55 186.07Q1041.14 186.07 1040.39 186.89Q1039.65 187.70 1039.65 189.24" fill="white" fill-opacity="0.7"/>
<path d="M1056.40 197.88Q1055.51 197.88 1054.97 197.35Q1054.43 196.82 1054.43 195.98Q1054.43 195.10 1054.97 194.54Q1055.51 193.99 1056.40 193.99Q1057.29 193.99 1057.83 194.54Q1058.37 195.10 1058.37 195.98Q1058.37 196.82 1057.83 197.35Q1057.29 197.88 1056.40 197.88" fill="white" fill-opacity="0.7"/>
<path d="M76.11 136.06L66.42 136.06L84.56 65.98L97.14 65.98L115.18 136.06L105.49 136.06L101.07 117.82L80.53 117.82L76.11 136.06M87.54 88.92L82.45 109.95L99.15 109.95L94.16 89.02Q92.72 83.26 91.86 79.23Q90.99 75.20 90.80 73.76Q90.61 75.20 89.74 79.23Q88.88 83.26 87.54 88.92M137.55 136.06L128.05 136.06L128.05 65.98L150.80 65.98Q157.52 65.98 162.42 68.57Q167.31 71.16 170 75.82Q172.69 80.48 172.69 86.91Q172.69 93.24 170 97.90Q167.31 102.56 162.37 105.15Q157.42 107.74 150.80 107.74L137.55 107.74L137.55 136.06M137.55 74.43L137.55 99.29L150.80 99.29Q156.37 99.29 159.63 95.88Q162.90 92.48 162.90 86.91Q162.90 81.24 159.63 77.84Q156.37 74.43 150.80 74.43L137.55 74.43M225.10 136.06L186.90 136.06L186.90 127.42L201.20 127.42L201.20 74.62L186.90 74.62L186.90 65.98L225.10 65.98L225.10 74.62L210.80 74.62L210.80 127.42L225.10 127.42L225.10 136.06M263.98 137.02Q253.62 137.02 247.47 131.60Q241.33 126.17 241.33 116.67L250.83 116.67Q250.83 122.24 254.38 125.40Q257.94 128.57 263.98 128.57Q269.74 128.57 273.15 125.36Q276.56 122.14 276.56 116.76Q276.56 112.73 274.35 109.71Q272.14 106.68 268.11 105.63L257.74 102.84Q250.93 100.92 246.94 95.88Q242.96 90.84 242.96 83.93Q242.96 78.27 245.50 74Q248.05 69.72 252.66 67.37Q257.26 65.02 263.31 65.02Q269.46 65.02 274.11 67.37Q278.77 69.72 281.36 73.95Q283.95 78.17 283.95 83.74L274.54 83.74Q274.54 79.13 271.42 76.25Q268.30 73.37 263.31 73.37Q258.32 73.37 255.30 76.25Q252.27 79.13 252.27 83.74Q252.27 87.48 254.29 90.03Q256.30 92.57 259.95 93.63L270.61 96.51Q277.81 98.43 281.84 103.85Q285.87 109.28 285.87 116.76Q285.87 122.91 283.18 127.47Q280.50 132.03 275.55 134.52Q270.61 137.02 263.98 137.02M342.51 136.06L301.71 136.06L301.71 65.98L342.51 65.98L342.51 74.52L311.12 74.52L311.12 95.36L339.15 95.36L339.15 103.61L311.12 103.61L311.12 127.52L342.51 127.52L342.51 136.06M383.60 136.06L374.10 136.06L374.10 74.62L355.09 74.62L355.09 65.98L402.51 65.98L402.51 74.62L383.60 74.62L383.60 136.06M436.40 137.02Q426.51 137.02 421.18 131.55Q415.86 126.08 415.86 116.67L415.86 65.98L425.36 65.98L425.36 116.67Q425.36 122.24 428.10 125.40Q430.83 128.57 436.40 128.57Q441.87 128.57 444.70 125.40Q447.54 122.24 447.54 116.67L447.54 65.98L457.04 65.98L457.04 116.67Q457.04 126.17 451.71 131.60Q446.38 137.02 436.40 137.02M551.98 137.02Q542.29 137.02 536.58 131.60Q530.86 126.17 530.86 116.67L530.86 85.28Q530.86 75.87 536.58 70.44Q542.29 65.02 551.98 65.02Q561.58 65.02 567.30 70.49Q573.01 75.96 573.01 85.28L563.50 85.28Q563.50 79.61 560.43 76.54Q557.36 73.47 551.98 73.47Q546.51 73.47 543.44 76.54Q540.37 79.61 540.37 85.28L540.37 116.67Q540.37 122.43 543.44 125.50Q546.51 128.57 551.98 128.57Q557.36 128.57 560.43 125.50Q563.50 122.43 563.50 116.67L563.50 107.55L549.87 107.55L549.87 99.10L573.01 99.10L573.01 116.67Q573.01 126.08 567.30 131.55Q561.58 137.02 551.98 137.02M609.20 137.02Q599.60 137.02 594.03 131.45Q588.46 125.88 588.46 115.71L588.46 86.24Q588.46 76.16 594.03 70.59Q599.60 65.02 609.20 65.02Q618.80 65.02 624.37 70.54Q629.94 76.06 629.94 86.24L629.94 115.71Q629.94 125.88 624.37 131.45Q618.80 137.02 609.20 137.02M609.20 128.57Q614.58 128.57 617.50 125.50Q620.43 122.43 620.43 116.67L620.43 85.28Q620.43 79.61 617.55 76.54Q614.67 73.47 609.20 73.47Q603.73 73.47 600.85 76.54Q597.97 79.61 597.97 85.28L597.97 116.67Q597.97 122.43 600.90 125.50Q603.82 128.57 609.20 128.57M673.14 136.06L660.37 136.06L642.42 65.98L652.21 65.98L663.82 113.21Q664.98 117.72 665.79 121.90Q666.61 126.08 666.99 128.28Q667.28 126.08 668.19 121.85Q669.10 117.63 670.16 113.12L681.39 65.98L691.18 65.98L673.14 136.06M768.75 136.06L759.73 136.06L759.73 65.98L773.17 65.98L781.81 96.22L790.83 65.98L804.37 65.98L804.37 136.06L795.25 136.06L795.25 103.90Q795.25 98.81 795.44 92.62Q795.63 86.43 795.97 80.24Q796.30 74.04 796.69 69.05L785.74 104.96L777.68 104.96L767.12 69.92Q767.98 76.92 768.37 85.52Q768.75 94.11 768.75 103.90L768.75 136.06M840.94 136.06L819.34 136.06L819.34 65.98L839.60 65.98Q849.30 65.98 854.91 70.83Q860.53 75.68 860.53 84.12Q860.53 89.60 857.12 93.87Q853.71 98.14 848.34 99.10L848.34 99.39Q852.37 99.87 855.49 102.27Q858.61 104.67 860.38 108.36Q862.16 112.06 862.16 116.48Q862.16 125.50 856.45 130.78Q850.74 136.06 840.94 136.06M828.66 74.33L828.66 95.55L839.50 95.55Q844.88 95.55 847.95 92.72Q851.02 89.88 851.02 84.99Q851.02 80 847.95 77.16Q844.88 74.33 839.60 74.33L828.66 74.33M828.66 103.61L828.66 127.71L840.08 127.71Q845.94 127.71 849.30 124.59Q852.66 121.47 852.66 116.09Q852.66 110.52 849.30 107.07Q845.94 103.61 840.08 103.61L828.66 103.61M897.20 137.02Q887.60 137.02 882.03 131.45Q876.46 125.88 876.46 115.71L876.46 86.24Q876.46 76.16 882.03 70.59Q887.60 65.02 897.20 65.02Q906.80 65.02 912.37 70.54Q917.94 76.06 917.94 86.24L917.94 115.71Q917.94 125.88 912.37 131.45Q906.80 137.02 897.20 137.02M897.20 128.57Q902.58 128.57 905.50 125.50Q908.43 122.43 908.43 116.67L908.43 85.28Q908.43 79.61 905.55 76.54Q902.67 73.47 897.20 73.47Q891.73 73.47 888.85 76.54Q885.97 79.61 885.97 85.28L885.97 116.67Q885.97 122.43 888.90 125.50Q891.82 128.57 897.20 128.57M955.18 137.02Q944.82 137.02 938.67 131.60Q932.53 126.17 932.53 116.67L942.03 116.67Q942.03 122.24 945.58 125.40Q949.14 128.57 955.18 128.57Q960.94 128.57 964.35 125.36Q967.76 122.14 967.76 116.76Q967.76 112.73 965.55 109.71Q963.34 106.68 959.31 105.63L948.94 102.84Q942.13 100.92 938.14 95.88Q934.16 90.84 934.16 83.93Q934.16 78.27 936.70 74Q939.25 69.72 943.86 67.37Q948.46 65.02 954.51 65.02Q960.66 65.02 965.31 67.37Q969.97 69.72 972.56 73.95Q975.15 78.17 975.15 83.74L965.74 83.74Q965.74 79.13 962.62 76.25Q959.50 73.37 954.51 73.37Q949.52 73.37 946.50 76.25Q943.47 79.13 943.47 83.74Q943.47 87.48 945.49 90.03Q947.50 92.57 951.15 93.63L961.81 96.51Q969.01 98.43 973.04 103.85Q977.07 109.28 977.07 116.76Q977.07 122.91 974.38 127.47Q971.70 132.03 966.75 134.52Q961.81 137.02 955.18 137.02M1033.71 136.06L992.91 136.06L992.91 65.98L1033.71 65.98L1033.71 74.52L1002.32 74.52L1002.32 95.36L1030.35 95.36L1030.35 103.61L1002.32 103.61L1002.32 127.52L1033.71 127.52" fill="url(#paint2_linear_0_1)"/>
<g id="Group 1">
<rect id="Rectangle 1" x="26" y="168" width="12" height="184" rx="5" fill="url(#paint3_linear_0_1)" fill-opacity="0.9"/>
</g>
<g id="Group 1_2">
<rect id="Rectangle 2" x="26" y="38" width="12" height="119" rx="5" fill="url(#paint4_linear_0_1)" fill-opacity="0.9"/>
</g>
<ellipse id="Ellipse 1" cx="148.5" cy="573" rx="215.5" ry="214" fill="url(#paint5_linear_0_1)" fill-opacity="0.4"/>
<rect id="Rectangle 3" x="1229" y="48" width="300" height="300" rx="25" fill="#FFFBFB" fill-opacity="0.9"/>
<g id="placeholder-logo"><g transform="translate(1229,48) translate(0.0,60.0) scale(1.2000)"><g fill="#666666">
  <path d="m88.05,27.65c-3.15,4 -3.2,51.2 -0.05,54.35c2.75,2.75 71.7,3.15 74.45,0.45c2.85,-2.9 2.3,-53.85 -0.65,-55.9c-1.95,-1.35 -7.15,-1.55 -36.95,-1.55l-34.7,0l-2.1,2.65zm69.45,3.35c0.65,0 1,8.6 1,23.75l0,23.75l-33,0l-33,0l-0.25,-23c-0.15,-12.6 -0.1,-23.45 0.15,-24.1c0.35,-0.85 8.9,-1.05 32.25,-0.75c17.55,0.2 32.3,0.35 32.85,0.35z"/>
  <path d="m99.15,37.3c-6.85,7.35 4.25,17.35 11.4,10.25c1.35,-1.35 2.45,-3.65 2.45,-5.05c0,-6.45 -9.35,-9.95 -13.85,-5.2z"/>
  <path d="m135,42.5c-0.7,0.85 -5.25,5.15 -10.1,9.6l-8.85,8.1l-3.2,-3.2l-3.15,-3.15l-6.35,6.3c-5.55,5.5 -6.35,6.75 -6.35,10.05l0,3.8l28.5,0l28.5,0l0,-8.6l0,-8.55l-8.15,-7.7c-9.35,-8.85 -9.15,-8.7 -10.85,-6.65zm7.25,15.2c0.95,0.9 1.75,2.9 1.75,4.45c6.35,-5.05 4.75,-7.15 4.9,-11.55c0.95,0 0,0 0,0l-6.65,7.1z"/>
  <path d="m53.65,110.75c0.1,4.8 0.45,8.65 0.75,8.5c0.35,-0.15 1.3,-0.25 2.1,-0.25c1.1,0 1.5,-1.2 1.5,-4.75l0,-4.75l3.25,5c4.9,7.5 6.2,6.75 6.55,-3.75c0.25,-8.15 0.15,-8.75 -1.7,-8.75c-1.65,0 -2.05,0.8 -2.3,4.75l-0.3,4.75l-2.8,-4.75c-4.85,-8.25 -7.25,-6.9 -7.05,4z"/>
  <path d="m91,108.9c0,9.65 0.3,10.1 6.1,10.1c5.8,0 7.15,-2.65 1.65,-3.2l-3.25,-0.3l-0.3,-6.75c-0.25,-5.95 -0.55,-6.75 -2.25,-6.75c-1.75,0 -1.95,0.7 -1.95,6.9z"/>
  <path d="m151,102.45c0,0.25 1,2.15 2.25,4.2c1.2,2.1 2.45,5.8 2.75,8.25c0.65,5.9 4,6.95 4,1.25c0.05,-2.1 1.25,-5.85 2.95,-8.9l2.9,-5.25l-2.5,0c-1.8,0 -2.8,0.85 -3.75,3.1l-1.3,3.05l-1.25,-3.05c-1.1,-2.6 -6.05,-4.8 -6.05,-2.65z"/>
  <path d="m191,107.45c0,9.05 3.4,8.85 4.25,-0.2c0.45,-5 0.35,-5.25 -1.9,-5.25c-2.2,0 -2.35,0.4 -2.35,5.45z"/>
  <path d="m180.8,104.75c-1.3,5.35 0.65,13.6 3.45,14.35c2.3,0.6 2.75,0.4 2.75,-1.2c0,-1.05 -0.45,-1.9 -1,-1.9c-0.55,0 -1,-1.6 -1,-3.5c0,-1.95 0.45,-3.5 1,-3.5c0.55,0 1,-0.7 1,-1.5c0,-0.85 -0.45,-1.5 -1,-1.5c-0.55,0 -1,-0.7 -1,-1.5c0,-2.1 -3.65,-1.9 -4.2,0.25z"/>
  <path d="m71.55,106.55c-2.2,2.25 -2.05,9.7 0.3,11.8c4.5,4.1 10.15,0.75 10.15,-6.1c0,-4.85 -2,-7.25 -6,-7.25c-1.55,0 -3.55,0.7 -4.45,1.55zm6.25,5.8c0.25,3.05 0,3.65 -1.6,3.65c-2.3,0 -3.25,-2.65 -2.05,-5.85c1.25,-3.35 3.3,-2.1 3.65,2.2z"/>
  <path d="m105.75,106.1c-2.5,1.45 -2.45,9.95 0.1,12.25c4.3,3.9 10.15,0.35 10.15,-6.2c0,-6 -5.15,-9.05 -10.25,-6.05zm6.05,6.25c0.25,3.05 0,3.65 -1.6,3.65c-2.3,0 -3.25,-2.65 -2.05,-5.85c1.25,-3.35 3.3,-2.1 3.65,2.2z"/>
  <path d="m119.2,106.2c-3.8,3.8 -0.4,12.55 4.4,11.35c1.9,-0.45 2.45,-0.3 2.15,0.65c-0.25,0.7 -1.55,1.2 -2.85,1.1c-4.05,-0.3 -5.35,0.45 -3.85,2.25c0.85,1.05 2.6,1.45 5.35,1.25l4.1,-0.3l0.3,-8.75l0.3,-8.75l-4.35,0c-2.4,0 -4.9,0.55 -5.55,1.2zm6.6,4.45c0.4,2.85 -2.15,4.85 -3.75,2.95c-0.9,-1.1 -0.9,-2 -0.05,-3.6c1.35,-2.5 3.4,-2.15 3.8,0.65z"/>
  <path d="m133.55,106.55c-2.2,2.25 -2.05,9.7 0.3,11.8c4.5,4.1 10.15,0.75 10.15,-6.1c0,-4.85 -2,-7.25 -6,-7.25c-1.55,0 -3.55,0.7 -4.45,1.55zm6.25,5.8c0.25,3.05 0,3.65 -1.6,3.65c-2.3,0 -3.25,-2.65 -2.05,-5.85c1.25,-3.35 3.3,-2.1 3.65,2.2z"/>
  <path d="m167.65,106.85c-3.9,4.3 -0.75,13.15 4.7,13.15c2.4,0 5.65,-2.75 5.65,-4.85c0,-1.4 -2.65,-1.55 -3.5,-0.15c-0.95,1.55 -4.5,1.15 -4.5,-0.5c0,-1.1 1.1,-1.5 4,-1.5c3.15,0 4,-0.35 4,-1.8c0,-5.3 -6.85,-8.25 -10.35,-4.35z"/>
  <path d="m191,117.5c0,2.15 0.4,2.6 2.25,2.3c1.5,-0.2 2.25,-1 2.25,-2.3c0,-1.3 -0.75,-2.1 -2.25,-2.3c-1.85,-0.3 -2.25,0.15 -2.25,2.3z"/>
 </g></g></g>
</g>
<defs>
<linearGradient id="paint0_linear_0_1" x1="0" y1="198" x2="1584" y2="198" gradientUnits="userSpaceOnUse">
<stop stop-color="#3D052C"/>
<stop offset="1"/>
</linearGradient>
<linearGradient id="paint1_linear_0_1" x1="323" y1="-224" x2="323" y2="352" gradientUnits="userSpaceOnUse">
<stop stop-color="#28F6F2" stop-opacity="0.4"/>
<stop offset="1" stop-color="#17908E" stop-opacity="0.7"/>
</linearGradient>
<linearGradient id="paint2_linear_0_1" x1="148.5" y1="38" x2="148.5" y2="140" gradientUnits="userSpaceOnUse">
<stop stop-color="white"/>
<stop offset="1" stop-color="#999999"/>
</linearGradient>
<linearGradient id="paint3_linear_0_1" x1="38" y1="260" x2="26" y2="260" gradientUnits="userSpaceOnUse">
<stop stop-color="#D9D9D9"/>
<stop offset="1" stop-color="#737373"/>
</linearGradient>
<linearGradient id="paint4_linear_0_1" x1="38" y1="97.5" x2="26" y2="97.5" gradientUnits="userSpaceOnUse">
<stop stop-color="#D9D9D9"/>
<stop offset="1" stop-color="#737373"/>
</linearGradient>
<linearGradient id="paint5_linear_0_1" x1="27.5" y1="434.5" x2="148.5" y2="787" gradientUnits="userSpaceOnUse">
<stop stop-color="#2E21BC"/>
<stop offset="1" stop-color="#150F56"/>
</linearGradient>
<clipPath id="clip0_0_1">
<rect width="1584" height="396" fill="white"/>
</clipPath>
</defs>
</svg>
